PathFileType	4	(X/Y/Z)	OpenSim_Sub11_CSPreOp_Accel.trc
DataRate	CameraRate	NumFrames	NumMarkers	Units	OrigDataRate	OrigDataStartFrame	OrigNumFrames
100	100	31	8	m	100	1	3701
Frame#	Time	torso_imu_offset_imu	pelvis_imu_offset_imu	tibia_r_imu_offset_imu	femur_r_imu_offset_imu	tibia_l_imu_offset_imu	femur_l_imu_offset_imu	toes_r_imu_offset_imu	toes_l_imu_offset_imu
				X1	Y1	Z1	X2	Y2	Z2	X3	Y3	Z3	X4	Y4	Z4	X5	Y5	Z5	X6	Y6	Z6	X7	Y7	Z7	X8		Y8	Z8	

1	0	8.51342100	0.01036600	5.18517800	9.25105100	0.18316100	3.12490800	9.78819300	0.25198300	2.02711800	9.41550800	1.82433100	-1.49069800	9.73716400	-0.37204900	1.30312700	9.65952100	1.48480600	-1.22220500	4.82677200	-0.43160600	8.50378500	5.88825600	0.00184100	7.87631700
2	0.01000000	8.51679300	0.03623800	5.20535000	9.27729800	0.19849900	3.09243600	9.79195900	0.29422000	2.03864000	9.51712900	1.92090300	-1.49116400	9.73811900	-0.40326900	1.31274500	9.63734400	1.47638900	-1.21995700	4.85315400	-0.45978500	8.47209400	5.88106200	0.06741000	7.81212600
3	0.02000000	8.50913000	0.00294700	5.19222600	9.25610200	0.22485600	3.06429700	9.79129400	0.29547500	2.04165200	9.51729700	1.92062800	-1.49045000	9.71455500	-0.40400300	1.30661200	9.65868700	1.48943000	-1.22316800	4.84011600	-0.44796300	8.48773400	5.87852500	0.02020200	7.84756200
4	0.03000000	8.51284600	-0.02178200	5.23180100	9.27856200	0.20108500	3.08847300	9.77709100	0.30935500	2.06013300	9.45960500	1.96248000	-1.47499900	9.75429500	-0.38795800	1.34820400	9.64200700	1.46229400	-1.24908500	4.86123200	-0.42220900	8.48253300	5.92270100	0.03278100	7.81694000
5	0.04000000	8.48426600	-0.00807000	5.24952600	9.29988400	0.19294600	3.06024300	9.81033600	0.30833200	2.05557800	9.51830600	1.96860300	-1.46579900	9.70695500	-0.39080700	1.33709800	9.61680400	1.51088900	-1.26353900	4.84039300	-0.44986200	8.48747600	5.87912900	0.02126400	7.84710700
6	0.05000000	8.50387200	-0.07039500	5.28037500	9.26303300	0.25166300	3.05360300	9.77393200	0.32978600	2.04833800	9.46686000	1.98538500	-1.47316100	9.73087500	-0.38692700	1.34155100	9.62110900	1.50991500	-1.23996800	4.87407900	-0.45562900	8.48207400	5.88175200	0.04306400	7.85883000
7	0.06000000	8.51216500	-0.05168700	5.27834800	9.28730000	0.24700100	3.04966300	9.80010700	0.36504400	2.08415800	9.51194100	1.99397300	-1.44337600	9.74605000	-0.33988600	1.36762100	9.59582200	1.55867000	-1.25460200	4.84009600	-0.45114300	8.48757800	5.89072400	0.03230700	7.82722100
8	0.07000000	8.49911100	-0.02437000	5.26817700	9.30974300	0.22273100	3.07398500	9.79098000	0.36192900	2.04500800	9.53809300	2.00996200	-1.42733800	9.72245800	-0.34038000	1.36172400	9.61246800	1.57491600	-1.28143600	4.82722700	-0.41958600	8.48795800	5.87988600	0.02324700	7.84653400
9	0.08000000	8.49143000	-0.05646900	5.25495800	9.29664600	0.27568500	3.06501100	9.78339800	0.39965600	2.08738200	9.52128800	2.04532000	-1.47231100	9.73055500	-0.34875700	1.32895200	9.64311800	1.58210800	-1.23663200	4.84070500	-0.41444300	8.45674200	5.85846500	0.03112100	7.83772300
10	0.09000000	8.45796600	-0.08460500	5.31433700	9.29737200	0.27618400	3.06276200	9.80523000	0.39385100	2.11436900	9.48885200	2.05457000	-1.46559300	9.75444100	-0.34484600	1.33358700	9.62247800	1.62784300	-1.22715900	4.83976000	-0.45278600	8.48768200	5.88284000	0.04551300	7.85800100
11	0.10000000	8.45568900	-0.03572700	5.29824500	9.27435300	0.28217000	3.06282200	9.77393300	0.39811100	2.04957900	9.61134000	2.17182000	-1.48468900	9.71417600	-0.32509300	1.28008400	9.61517400	1.59458500	-1.20523500	4.84719600	-0.43217000	8.51382700	5.86960100	0.01504800	7.86543600
12	0.11000000	8.48035000	-0.05487800	5.28689100	9.29561800	0.27346600	3.03463100	9.80228200	0.41579600	2.10110100	9.46197100	2.05701600	-1.42555100	9.70719800	-0.34644600	1.32207300	9.60550700	1.60263400	-1.25289900	4.82666200	-0.44079100	8.50337600	5.88951900	0.01364800	7.81442700
13	0.12000000	8.48929300	-0.03595500	5.28391700	9.29938700	0.27792600	3.05648100	9.77965600	0.42529800	2.07712300	9.37449000	1.95641500	-1.44424700	9.75482600	-0.34049000	1.33188900	9.59965400	1.62331300	-1.22467300	4.82662000	-0.44142800	8.50336700	5.88346900	0.04702300	7.85752200
14	0.13000000	8.46074700	-0.05950400	5.26170600	9.28126800	0.30729100	3.05218600	9.79078500	0.43265900	2.04648000	9.54198500	2.08276400	-1.43348500	9.73472400	-0.32983500	1.30505400	9.59461500	1.62830600	-1.24877600	4.86078900	-0.42835800	8.48247900	5.87011200	0.01670800	7.86505200
15	0.14000000	8.49153600	-0.01105600	5.30587300	9.28186000	0.30771600	3.05034200	9.77249400	0.48325800	2.03092600	9.49901600	2.10236800	-1.49436400	9.72685900	-0.31825600	1.33695500	9.59885100	1.62753700	-1.22536400	4.83988700	-0.45581600	8.48744700	5.90367200	0.04603700	7.80628900
16	0.15000000	8.43120600	0.00401600	5.26125800	9.28058200	0.28853000	3.07709200	9.78074600	0.49036000	2.07314200	9.45285400	2.11396900	-1.46794300	9.75069900	-0.31473200	1.34178000	9.61553200	1.64312200	-1.25248100	4.82729700	-0.42429400	8.48768400	5.86022200	0.03445900	7.83639500
17	0.16000000	8.47284900	-0.01548600	5.27927500	9.30978500	0.30694000	3.06863300	9.79409500	0.47948100	2.05847200	9.46654900	2.11125100	-1.48841900	9.75433800	-0.30201300	1.32007600	9.58879900	1.63728600	-1.27358400	4.84107400	-0.41939400	8.45628600	5.90601900	0.04145300	7.86547400
18	0.17000000	8.47164100	-0.01777800	5.28120700	9.30224400	0.27984400	3.04760000	9.79378900	0.48106700	2.05955700	9.49997800	2.15009600	-1.47060300	9.73065000	-0.30300000	1.31473600	9.65130600	1.63352400	-1.23653200	4.82735500	-0.44479500	8.50277400	5.87975800	0.00678600	7.83293800
19	0.18000000	8.44394400	-0.00235700	5.29735100	9.26350100	0.31848900	3.06961600	9.78189900	0.47735500	2.09292600	9.46742400	2.15954200	-1.46443800	9.71221400	-0.35852700	1.30922600	9.61445600	1.64924800	-1.25268800	4.84864800	-0.41882200	8.49751400	5.86072600	0.03581900	7.83601200
20	0.19000000	8.42642800	-0.00351000	5.26890800	9.30513100	0.30012200	3.01576300	9.77945000	0.49678300	2.07772300	9.47378800	2.13407900	-1.48689300	9.75537900	-0.33141200	1.33012900	9.60265700	1.61853400	-1.25430600	4.80718000	-0.45473100	8.49204700	5.90221700	0.02718100	7.79368500
21	0.20000000	8.46242700	-0.00049900	5.25094600	9.28505700	0.30988400	3.04037700	9.80650200	0.47264900	2.04742700	9.47900400	2.12912900	-1.45314500	9.73606700	-0.35410800	1.31421900	9.60704500	1.61724000	-1.23046500	4.86253100	-0.41526700	8.46598900	5.91540500	0.03204100	7.83354500
22	0.21000000	8.45633400	0.00731000	5.27483500	9.26678100	0.33901700	3.03656300	9.79465500	0.46855200	2.08064700	9.48537700	2.10349600	-1.47579000	9.71149800	-0.32238900	1.29839600	9.62381600	1.63244000	-1.25730700	4.80803900	-0.43804800	8.47624400	5.88295000	0.03016800	7.84421300
23	0.22000000	8.42298600	0.00745000	5.21531000	9.30959800	0.30474000	3.03554200	9.79952000	0.45153200	2.02494600	9.50419100	2.09622000	-1.46257300	9.75905000	-0.31677800	1.30861000	9.61116500	1.61738300	-1.20683700	4.85516800	-0.45781900	8.45481200	5.88316800	0.03050900	7.84404900
24	0.23000000	8.41758500	0.00311900	5.29716500	9.29116100	0.33353300	3.03225300	9.78342600	0.40580100	2.04974900	9.47596200	2.05201900	-1.44732300	9.72386000	-0.31948100	1.35676800	9.60628200	1.62175500	-1.23047800	4.82867700	-0.45151100	8.50167000	5.89194800	0.01923400	7.81258400
25	0.24000000	8.44332900	-0.01346700	5.28417900	9.32017000	0.35171100	3.02431400	9.78323900	0.48388200	2.02614200	9.50415300	2.09588500	-1.46330400	9.72742200	-0.30721200	1.33543700	9.61199600	1.67437300	-1.20026400	4.85003500	-0.42584700	8.49637300	5.87245300	0.02144800	7.86329200
26	0.25000000	8.43195900	0.01691200	5.27151500	9.29013400	0.31425200	3.05838000	9.79368300	0.47215400	2.08440600	9.47795300	2.07978500	-1.47974000	9.72832300	-0.33909700	1.34610900	9.62200100	1.65398100	-1.20472700	4.82929100	-0.45405500	8.50118600	5.88383800	0.03135300	7.84354200
27	0.26000000	8.41568300	0.00491700	5.30018500	9.29371000	0.31819500	3.08103200	9.80927900	0.44235000	2.08594900	9.49677600	2.07244100	-1.46658200	9.72833100	-0.33834100	1.34624200	9.60476100	1.64161800	-1.17782800	4.82297200	-0.43897900	8.44388200	5.89280900	0.02010900	7.81193200
28	0.27000000	8.42046500	-0.00248100	5.27843200	9.26405600	0.31591100	3.03431700	9.78468000	0.46848800	2.04521600	9.47782900	2.07966600	-1.48070000	9.75210500	-0.33535100	1.35141200	9.59525600	1.64861100	-1.22534100	4.82979200	-0.45685400	8.50075100	5.87343200	0.02236300	7.86255800
29	0.28000000	8.45248900	0.04966200	5.32062800	9.29306000	0.33431800	3.02634200	9.78868000	0.43296600	2.07909000	9.47255700	2.08450000	-1.51490000	9.72484800	-0.34810400	1.36764500	9.62697000	1.63886800	-1.23285800	4.79638300	-0.45288900	8.50592400	5.91509100	0.01339400	7.82009000
30	0.29000000	8.47340800	0.04266800	5.32947400	9.29171800	0.31513000	3.05347500	9.78413700	0.46938700	2.04760900	9.50598300	2.12346400	-1.49700700	9.72836200	-0.33594600	1.34661800	9.62001500	1.60437200	-1.21072300	4.84377400	-0.45392900	8.46912400	5.87400000	0.02304200	7.86213200
31	0.30000000	8.45164000	0.05325300	5.32194200	9.29212400	0.31531000	3.05222100	9.79975200	0.43905100	2.04923600	9.50396800	2.09512400	-1.46559000	9.72837200	-0.33540600	1.34668300	9.63014200	1.58348100	-1.21506800	4.83103100	-0.44195100	8.48465800	5.88281500	0.01185400	7.83063700
